<?xml version="1.0" encoding="UTF-8"?>
<svg version="1.1" xmlns="http://www.w3.org/2000/svg" width="554" height="554">
<path d="M0 0 C182.82 0 365.64 0 554 0 C554 182.82 554 365.64 554 554 C371.18 554 188.36 554 0 554 C0 371.18 0 188.36 0 0 Z " fill="#FEFEFE" transform="translate(0,0)"/>
<path d="M0 0 C1.15560061 1.15560061 2.31016861 2.31224404 3.4609375 3.47265625 C4.47147728 4.47550157 5.49730074 5.46322175 6.5390625 6.43359375 C12.42931145 12.03072605 17.23480496 18.45033775 22 25 C22.60932373 25.8348291 22.60932373 25.8348291 23.23095703 26.68652344 C48.13823203 61.26935545 59.75588259 101.43661089 61.2800293 143.66992188 C61.60536565 151.5164388 62.49290221 158.53937801 65 166 C70.02899554 166.29582327 72.99987689 166.15799193 77 163 C84.09496021 156.43716181 87.63124783 145.05638585 88.12939453 135.52392578 C88.13052246 134.6729834 88.13165039 133.82204102 88.1328125 132.9453125 C88.13474609 131.52798828 88.13474609 131.52798828 88.13671875 130.08203125 C88.13285156 129.10621094 88.12898437 128.13039062 88.125 127.125 C88.12886719 126.15691406 88.13273438 125.18882812 88.13671875 124.19140625 C88.12968162 119.0191183 87.89431458 114.09617356 87 109 C91.33063813 110.49751038 94.87336517 112.77703168 98.5625 115.4375 C99.17311279 115.87634521 99.78372559 116.31519043 100.4128418 116.76733398 C106.72020786 121.39099212 112.38147991 126.57411488 118 132 C118.77859375 132.72703125 119.5571875 133.4540625 120.359375 134.203125 C158.91374241 171.11688103 189.36306252 236.04606387 191.10961914 289.34521484 C191.17060569 293.23049205 191.19376538 297.1143624 191.1875 301 C191.18689575 301.69008148 191.1862915 302.38016296 191.18566895 303.09115601 C191.16085091 313.5288053 190.83341232 323.69897818 189 334 C188.8870459 334.67611328 188.7740918 335.35222656 188.65771484 336.04882812 C183.1394654 368.16843801 167.28817298 398.40842509 145 422 C143.87037767 423.32941948 142.74520688 424.66263718 141.625 426 C120.23591191 450.36793369 89.04341767 466.83931292 58 475 C57.34 475 56.68 475 56 475 C56 453.55 56 432.1 56 410 C28.28 410 0.56 410 -28 410 C-28 431.12 -28 452.24 -28 474 C-67.51384747 467.41435875 -105.1381012 438.9084072 -128.0625 406.875 C-134.06686807 398.30634731 -139.17173318 389.27266868 -144 380 C-144.350625 379.33822754 -144.70125 378.67645508 -145.0625 377.99462891 C-147.50071001 373.28791385 -149.36384477 368.53808968 -151 363.5 C-151.25563721 362.71882813 -151.51127441 361.93765625 -151.7746582 361.1328125 C-154.01945334 354.15057459 -155.99024181 347.13895595 -157.56201172 339.97460938 C-157.98543358 338.0656707 -158.44714789 336.16535029 -158.91015625 334.265625 C-168.19616519 292.2060834 -157.83793196 245.09837896 -135.53125 208.9296875 C-130.70466557 201.36867572 -125.24621131 194.31008006 -119.640625 187.31640625 C-117.25769661 184.34117444 -114.96063593 181.31031449 -112.6875 178.25 C-108.93952229 173.21929194 -105.10864027 168.25876135 -101.25 163.3125 C-95.59665687 156.06363253 -89.98413926 148.78568749 -84.4140625 141.47265625 C-81.98414913 138.28294907 -79.5386379 135.10580885 -77.0859375 131.93359375 C-69.41925163 121.98899102 -62.05310093 111.92391646 -55.0625 101.4921875 C-52.81140735 98.14676697 -50.4684312 94.88304026 -48.08203125 91.6328125 C-33.89210081 72.22654097 -21.26238924 51.50680327 -10.87890625 29.81835938 C-10.03454234 28.07146427 -9.15851579 26.33998115 -8.28125 24.609375 C-4.85794463 17.66207882 -2.92431982 11.30474182 -1.54296875 3.703125 C-1 1 -1 1 0 0 Z " fill="#F25533" transform="translate(266,6)"/>
<path d="M0 0 C23.42739537 13.80218642 39.65625106 37.56761142 48 63 C48.3403125 63.98871094 48.680625 64.97742188 49.03125 65.99609375 C52.30403756 76.43567998 52.09040939 86.84849816 48 97 C47.67128906 97.82113281 47.34257812 98.64226562 47.00390625 99.48828125 C41.3949138 111.96780424 32.13976773 119.35874119 20 125 C9.31429869 128.77142399 -3.81141483 128.48111923 -14.33203125 124.31640625 C-27.19520116 117.96957132 -35.49778584 108.54010386 -40.90625 95.39453125 C-44.58596753 83.97426505 -44.14492618 72.27682718 -39.6796875 61.23046875 C-35.77622051 53.72310317 -30.64290805 47.14812911 -25.375 40.5625 C-15.40661358 27.88791475 -6.05727759 15.03692595 0 0 Z " fill="#FEFDFD" transform="translate(277,264)"/>
</svg>
